<svg id="visual" viewBox="0 0 900 600" width="900" height="600" xmlns="http://www.w3.org/2000/svg" xmlns:xlink="http://www.w3.org/1999/xlink" version="1.1"><rect x="0" y="0" width="900" height="600" fill="#001220"></rect><path d="M667 600L667.7 585.7C668.3 571.3 669.7 542.7 666.2 514.2C662.7 485.7 654.3 457.3 658.7 428.8C663 400.3 680 371.7 677.2 343C674.3 314.3 651.7 285.7 655.3 257C659 228.3 689 199.7 702.7 171.2C716.3 142.7 713.7 114.3 703.3 85.8C693 57.3 675 28.7 666 14.3L657 0L900 0L900 14.3C900 28.7 900 57.3 900 85.8C900 114.3 900 142.7 900 171.2C900 199.7 900 228.3 900 257C900 285.7 900 314.3 900 343C900 371.7 900 400.3 900 428.8C900 457.3 900 485.7 900 514.2C900 542.7 900 571.3 900 585.7L900 600Z" fill="#fa7268"></path><path d="M703 600L706.3 585.7C709.7 571.3 716.3 542.7 719.7 514.2C723 485.7 723 457.3 711.7 428.8C700.3 400.3 677.7 371.7 682.2 343C686.7 314.3 718.3 285.7 734.7 257C751 228.3 752 199.7 743.8 171.2C735.7 142.7 718.3 114.3 718.3 85.8C718.3 57.3 735.7 28.7 744.3 14.3L753 0L900 0L900 14.3C900 28.7 900 57.3 900 85.8C900 114.3 900 142.7 900 171.2C900 199.7 900 228.3 900 257C900 285.7 900 314.3 900 343C900 371.7 900 400.3 900 428.8C900 457.3 900 485.7 900 514.2C900 542.7 900 571.3 900 585.7L900 600Z" fill="#ef5f67"></path><path d="M727 600L734.2 585.7C741.3 571.3 755.7 542.7 765.7 514.2C775.7 485.7 781.3 457.3 777 428.8C772.7 400.3 758.3 371.7 747.7 343C737 314.3 730 285.7 731.3 257C732.7 228.3 742.3 199.7 750.3 171.2C758.3 142.7 764.7 114.3 760.2 85.8C755.7 57.3 740.3 28.7 732.7 14.3L725 0L900 0L900 14.3C900 28.7 900 57.3 900 85.8C900 114.3 900 142.7 900 171.2C900 199.7 900 228.3 900 257C900 285.7 900 314.3 900 343C900 371.7 900 400.3 900 428.8C900 457.3 900 485.7 900 514.2C900 542.7 900 571.3 900 585.7L900 600Z" fill="#e34c67"></path><path d="M769 600L777.2 585.7C785.3 571.3 801.7 542.7 804.3 514.2C807 485.7 796 457.3 786.5 428.8C777 400.3 769 371.7 764.8 343C760.7 314.3 760.3 285.7 761.2 257C762 228.3 764 199.7 766.2 171.2C768.3 142.7 770.7 114.3 777.7 85.8C784.7 57.3 796.3 28.7 802.2 14.3L808 0L900 0L900 14.3C900 28.7 900 57.3 900 85.8C900 114.3 900 142.7 900 171.2C900 199.7 900 228.3 900 257C900 285.7 900 314.3 900 343C900 371.7 900 400.3 900 428.8C900 457.3 900 485.7 900 514.2C900 542.7 900 571.3 900 585.7L900 600Z" fill="#d53867"></path><path d="M829 600L834.7 585.7C840.3 571.3 851.7 542.7 849.2 514.2C846.7 485.7 830.3 457.3 830 428.8C829.7 400.3 845.3 371.7 845 343C844.7 314.3 828.3 285.7 824.2 257C820 228.3 828 199.7 836 171.2C844 142.7 852 114.3 856.3 85.8C860.7 57.3 861.3 28.7 861.7 14.3L862 0L900 0L900 14.3C900 28.7 900 57.3 900 85.8C900 114.3 900 142.7 900 171.2C900 199.7 900 228.3 900 257C900 285.7 900 314.3 900 343C900 371.7 900 400.3 900 428.8C900 457.3 900 485.7 900 514.2C900 542.7 900 571.3 900 585.7L900 600Z" fill="#c62368"></path></svg>