<svg id="visual" viewBox="0 0 960 540" width="960" height="540" xmlns="http://www.w3.org/2000/svg" xmlns:xlink="http://www.w3.org/1999/xlink" version="1.1"><rect x="0" y="0" width="960" height="540" fill="#001220"></rect><path d="M711 540L711.7 527.2C712.3 514.3 713.7 488.7 710 463C706.3 437.3 697.7 411.7 702.3 386C707 360.3 725 334.7 722 308.8C719 283 695 257 699 231.2C703 205.3 735 179.7 749.7 154C764.3 128.3 761.7 102.7 750.7 77C739.7 51.3 720.3 25.7 710.7 12.8L701 0L960 0L960 12.8C960 25.7 960 51.3 960 77C960 102.7 960 128.3 960 154C960 179.7 960 205.3 960 231.2C960 257 960 283 960 308.8C960 334.7 960 360.3 960 386C960 411.7 960 437.3 960 463C960 488.7 960 514.3 960 527.2L960 540Z" fill="#fa7268"></path><path d="M750 540L753.7 527.2C757.3 514.3 764.7 488.7 768.2 463C771.7 437.3 771.3 411.7 759.2 386C747 360.3 723 334.7 727.8 308.8C732.7 283 766.3 257 783.7 231.2C801 205.3 802 179.7 793.3 154C784.7 128.3 766.3 102.7 766.3 77C766.3 51.3 784.7 25.7 793.8 12.8L803 0L960 0L960 12.8C960 25.7 960 51.3 960 77C960 102.7 960 128.3 960 154C960 179.7 960 205.3 960 231.2C960 257 960 283 960 308.8C960 334.7 960 360.3 960 386C960 411.7 960 437.3 960 463C960 488.7 960 514.3 960 527.2L960 540Z" fill="#ef5f67"></path><path d="M776 540L783.5 527.2C791 514.3 806 488.7 816.5 463C827 437.3 833 411.7 828.5 386C824 360.3 809 334.7 797.7 308.8C786.3 283 778.7 257 780 231.2C781.3 205.3 791.7 179.7 800.2 154C808.7 128.3 815.3 102.7 810.5 77C805.7 51.3 789.3 25.7 781.2 12.8L773 0L960 0L960 12.8C960 25.7 960 51.3 960 77C960 102.7 960 128.3 960 154C960 179.7 960 205.3 960 231.2C960 257 960 283 960 308.8C960 334.7 960 360.3 960 386C960 411.7 960 437.3 960 463C960 488.7 960 514.3 960 527.2L960 540Z" fill="#e34c67"></path><path d="M820 540L828.8 527.2C837.7 514.3 855.3 488.7 858.2 463C861 437.3 849 411.7 838.8 386C828.7 360.3 820.3 334.7 816 308.8C811.7 283 811.3 257 812.2 231.2C813 205.3 815 179.7 817.2 154C819.3 128.3 821.7 102.7 829.2 77C836.7 51.3 849.3 25.7 855.7 12.8L862 0L960 0L960 12.8C960 25.7 960 51.3 960 77C960 102.7 960 128.3 960 154C960 179.7 960 205.3 960 231.2C960 257 960 283 960 308.8C960 334.7 960 360.3 960 386C960 411.7 960 437.3 960 463C960 488.7 960 514.3 960 527.2L960 540Z" fill="#d53867"></path><path d="M884 540L890 527.2C896 514.3 908 488.7 905.3 463C902.7 437.3 885.3 411.7 885.2 386C885 360.3 902 334.7 901.7 308.8C901.3 283 883.7 257 879.2 231.2C874.7 205.3 883.3 179.7 892 154C900.7 128.3 909.3 102.7 913.8 77C918.3 51.3 918.7 25.7 918.8 12.8L919 0L960 0L960 12.8C960 25.7 960 51.3 960 77C960 102.7 960 128.3 960 154C960 179.7 960 205.3 960 231.2C960 257 960 283 960 308.8C960 334.7 960 360.3 960 386C960 411.7 960 437.3 960 463C960 488.7 960 514.3 960 527.2L960 540Z" fill="#c62368"></path></svg>